<mxfile host="app.diagrams.net" agent="Mozilla/5.0 (Windows NT 10.0; Win64; x64) AppleWebKit/537.36 (KHTML, like Gecko) Chrome/140.0.0.0 Safari/537.36 Edg/140.0.0.0" version="28.2.2">
  <diagram name="ページ1" id="nxR9lpzSVGFlM5cRDV6Y">
    <mxGraphModel dx="1546" dy="575" grid="1" gridSize="10" guides="1" tooltips="1" connect="1" arrows="1" fold="1" page="1" pageScale="1" pageWidth="1200" pageHeight="1600" math="0" shadow="0">
      <root>
        <mxCell id="0" />
        <mxCell id="1" parent="0" />
        <mxCell id="PkmGrTC4i7uRgXSUsqou-3" style="edgeStyle=orthogonalEdgeStyle;rounded=0;orthogonalLoop=1;jettySize=auto;html=1;entryX=0;entryY=0.5;entryDx=0;entryDy=0;" edge="1" parent="1" source="PkmGrTC4i7uRgXSUsqou-1" target="PkmGrTC4i7uRgXSUsqou-2">
          <mxGeometry relative="1" as="geometry" />
        </mxCell>
        <mxCell id="PkmGrTC4i7uRgXSUsqou-1" value="顧客" style="shape=umlActor;verticalLabelPosition=bottom;verticalAlign=top;html=1;outlineConnect=0;" vertex="1" parent="1">
          <mxGeometry x="15" y="80" width="30" height="60" as="geometry" />
        </mxCell>
        <mxCell id="PkmGrTC4i7uRgXSUsqou-5" style="edgeStyle=orthogonalEdgeStyle;rounded=0;orthogonalLoop=1;jettySize=auto;html=1;entryX=0;entryY=0.5;entryDx=0;entryDy=0;" edge="1" parent="1" source="PkmGrTC4i7uRgXSUsqou-2" target="PkmGrTC4i7uRgXSUsqou-4">
          <mxGeometry relative="1" as="geometry" />
        </mxCell>
        <mxCell id="PkmGrTC4i7uRgXSUsqou-2" value="商品選択&lt;div&gt;カートに追加&lt;/div&gt;" style="rounded=0;whiteSpace=wrap;html=1;" vertex="1" parent="1">
          <mxGeometry x="85" y="80" width="120" height="60" as="geometry" />
        </mxCell>
        <mxCell id="PkmGrTC4i7uRgXSUsqou-7" style="edgeStyle=orthogonalEdgeStyle;rounded=0;orthogonalLoop=1;jettySize=auto;html=1;entryX=0;entryY=0.5;entryDx=0;entryDy=0;" edge="1" parent="1" source="PkmGrTC4i7uRgXSUsqou-4" target="PkmGrTC4i7uRgXSUsqou-6">
          <mxGeometry relative="1" as="geometry" />
        </mxCell>
        <mxCell id="PkmGrTC4i7uRgXSUsqou-4" value="配送情報入力" style="rounded=0;whiteSpace=wrap;html=1;" vertex="1" parent="1">
          <mxGeometry x="225" y="80" width="120" height="60" as="geometry" />
        </mxCell>
        <mxCell id="PkmGrTC4i7uRgXSUsqou-9" style="edgeStyle=orthogonalEdgeStyle;rounded=0;orthogonalLoop=1;jettySize=auto;html=1;entryX=0;entryY=0.5;entryDx=0;entryDy=0;" edge="1" parent="1" source="PkmGrTC4i7uRgXSUsqou-6" target="PkmGrTC4i7uRgXSUsqou-8">
          <mxGeometry relative="1" as="geometry" />
        </mxCell>
        <mxCell id="PkmGrTC4i7uRgXSUsqou-6" value="注文" style="rounded=0;whiteSpace=wrap;html=1;" vertex="1" parent="1">
          <mxGeometry x="365" y="80" width="120" height="60" as="geometry" />
        </mxCell>
        <mxCell id="PkmGrTC4i7uRgXSUsqou-14" style="edgeStyle=orthogonalEdgeStyle;rounded=0;orthogonalLoop=1;jettySize=auto;html=1;exitX=1;exitY=0.5;exitDx=0;exitDy=0;entryX=0;entryY=0.5;entryDx=0;entryDy=0;" edge="1" parent="1" source="PkmGrTC4i7uRgXSUsqou-8" target="PkmGrTC4i7uRgXSUsqou-11">
          <mxGeometry relative="1" as="geometry" />
        </mxCell>
        <mxCell id="PkmGrTC4i7uRgXSUsqou-8" value="支払い実行&lt;div&gt;（クレジットカード）&lt;/div&gt;" style="rounded=0;whiteSpace=wrap;html=1;" vertex="1" parent="1">
          <mxGeometry x="505" y="80" width="120" height="60" as="geometry" />
        </mxCell>
        <mxCell id="PkmGrTC4i7uRgXSUsqou-16" style="edgeStyle=orthogonalEdgeStyle;rounded=0;orthogonalLoop=1;jettySize=auto;html=1;exitX=0.5;exitY=0;exitDx=0;exitDy=0;entryX=0;entryY=0.25;entryDx=0;entryDy=0;" edge="1" parent="1" source="PkmGrTC4i7uRgXSUsqou-11" target="PkmGrTC4i7uRgXSUsqou-12">
          <mxGeometry relative="1" as="geometry" />
        </mxCell>
        <mxCell id="PkmGrTC4i7uRgXSUsqou-11" value="決済成功？" style="shape=hexagon;perimeter=hexagonPerimeter2;whiteSpace=wrap;html=1;fixedSize=1;" vertex="1" parent="1">
          <mxGeometry x="645" y="70" width="120" height="80" as="geometry" />
        </mxCell>
        <mxCell id="PkmGrTC4i7uRgXSUsqou-23" style="edgeStyle=orthogonalEdgeStyle;rounded=0;orthogonalLoop=1;jettySize=auto;html=1;exitX=1;exitY=0.5;exitDx=0;exitDy=0;entryX=0;entryY=0.5;entryDx=0;entryDy=0;" edge="1" parent="1" source="PkmGrTC4i7uRgXSUsqou-12" target="PkmGrTC4i7uRgXSUsqou-22">
          <mxGeometry relative="1" as="geometry" />
        </mxCell>
        <mxCell id="PkmGrTC4i7uRgXSUsqou-12" value="注文情報を&lt;div&gt;DBに登録&lt;/div&gt;" style="rounded=0;whiteSpace=wrap;html=1;" vertex="1" parent="1">
          <mxGeometry x="785" y="30" width="120" height="60" as="geometry" />
        </mxCell>
        <mxCell id="PkmGrTC4i7uRgXSUsqou-67" style="edgeStyle=orthogonalEdgeStyle;rounded=0;orthogonalLoop=1;jettySize=auto;html=1;exitX=1;exitY=0.5;exitDx=0;exitDy=0;entryX=0;entryY=0.5;entryDx=0;entryDy=0;" edge="1" parent="1" source="PkmGrTC4i7uRgXSUsqou-13" target="PkmGrTC4i7uRgXSUsqou-65">
          <mxGeometry relative="1" as="geometry" />
        </mxCell>
        <mxCell id="PkmGrTC4i7uRgXSUsqou-13" value="エラーメッセージ&lt;div&gt;表示&lt;/div&gt;" style="rounded=0;whiteSpace=wrap;html=1;" vertex="1" parent="1">
          <mxGeometry x="785" y="130" width="120" height="60" as="geometry" />
        </mxCell>
        <mxCell id="PkmGrTC4i7uRgXSUsqou-19" value="" style="endArrow=classic;html=1;rounded=0;exitX=0.5;exitY=1;exitDx=0;exitDy=0;entryX=0;entryY=0.75;entryDx=0;entryDy=0;" edge="1" parent="1" source="PkmGrTC4i7uRgXSUsqou-11" target="PkmGrTC4i7uRgXSUsqou-13">
          <mxGeometry width="50" height="50" relative="1" as="geometry">
            <mxPoint x="775" y="160" as="sourcePoint" />
            <mxPoint x="825" y="110" as="targetPoint" />
            <Array as="points">
              <mxPoint x="705" y="175" />
            </Array>
          </mxGeometry>
        </mxCell>
        <mxCell id="PkmGrTC4i7uRgXSUsqou-20" value="yes" style="text;html=1;align=center;verticalAlign=middle;resizable=0;points=[];autosize=1;strokeColor=none;fillColor=none;" vertex="1" parent="1">
          <mxGeometry x="725" y="20" width="40" height="30" as="geometry" />
        </mxCell>
        <mxCell id="PkmGrTC4i7uRgXSUsqou-21" value="no" style="text;html=1;align=center;verticalAlign=middle;resizable=0;points=[];autosize=1;strokeColor=none;fillColor=none;" vertex="1" parent="1">
          <mxGeometry x="725" y="168" width="40" height="30" as="geometry" />
        </mxCell>
        <mxCell id="PkmGrTC4i7uRgXSUsqou-22" value="注文確認&lt;div&gt;メール送信&lt;/div&gt;" style="rounded=0;whiteSpace=wrap;html=1;" vertex="1" parent="1">
          <mxGeometry x="925" y="30" width="120" height="60" as="geometry" />
        </mxCell>
        <mxCell id="PkmGrTC4i7uRgXSUsqou-29" style="edgeStyle=orthogonalEdgeStyle;rounded=0;orthogonalLoop=1;jettySize=auto;html=1;entryX=0;entryY=0.5;entryDx=0;entryDy=0;" edge="1" parent="1" source="PkmGrTC4i7uRgXSUsqou-24" target="PkmGrTC4i7uRgXSUsqou-28">
          <mxGeometry relative="1" as="geometry" />
        </mxCell>
        <mxCell id="PkmGrTC4i7uRgXSUsqou-24" value="管理者が&lt;div&gt;注文確認&lt;/div&gt;" style="rounded=0;whiteSpace=wrap;html=1;" vertex="1" parent="1">
          <mxGeometry x="85" y="250" width="120" height="60" as="geometry" />
        </mxCell>
        <mxCell id="PkmGrTC4i7uRgXSUsqou-27" value="" style="endArrow=classic;html=1;rounded=0;exitX=1;exitY=0.5;exitDx=0;exitDy=0;entryX=0;entryY=0.5;entryDx=0;entryDy=0;" edge="1" parent="1" source="PkmGrTC4i7uRgXSUsqou-22" target="PkmGrTC4i7uRgXSUsqou-24">
          <mxGeometry width="50" height="50" relative="1" as="geometry">
            <mxPoint x="775" y="250" as="sourcePoint" />
            <mxPoint x="65" y="340" as="targetPoint" />
            <Array as="points">
              <mxPoint x="1095" y="60" />
              <mxPoint x="1095" y="210" />
              <mxPoint x="465" y="210" />
              <mxPoint x="65" y="210" />
              <mxPoint x="65" y="280" />
            </Array>
          </mxGeometry>
        </mxCell>
        <mxCell id="PkmGrTC4i7uRgXSUsqou-31" style="edgeStyle=orthogonalEdgeStyle;rounded=0;orthogonalLoop=1;jettySize=auto;html=1;entryX=0;entryY=0.5;entryDx=0;entryDy=0;" edge="1" parent="1" source="PkmGrTC4i7uRgXSUsqou-28" target="PkmGrTC4i7uRgXSUsqou-30">
          <mxGeometry relative="1" as="geometry" />
        </mxCell>
        <mxCell id="PkmGrTC4i7uRgXSUsqou-28" value="在庫チェック&lt;div&gt;梱包作業&lt;/div&gt;" style="rounded=0;whiteSpace=wrap;html=1;" vertex="1" parent="1">
          <mxGeometry x="225" y="250" width="120" height="60" as="geometry" />
        </mxCell>
        <mxCell id="PkmGrTC4i7uRgXSUsqou-33" style="edgeStyle=orthogonalEdgeStyle;rounded=0;orthogonalLoop=1;jettySize=auto;html=1;entryX=0;entryY=0.5;entryDx=0;entryDy=0;" edge="1" parent="1" source="PkmGrTC4i7uRgXSUsqou-30" target="PkmGrTC4i7uRgXSUsqou-32">
          <mxGeometry relative="1" as="geometry" />
        </mxCell>
        <mxCell id="PkmGrTC4i7uRgXSUsqou-30" value="ステータス更新&lt;div&gt;「出荷準備中」&lt;/div&gt;" style="rounded=0;whiteSpace=wrap;html=1;" vertex="1" parent="1">
          <mxGeometry x="365" y="250" width="120" height="60" as="geometry" />
        </mxCell>
        <mxCell id="PkmGrTC4i7uRgXSUsqou-35" style="edgeStyle=orthogonalEdgeStyle;rounded=0;orthogonalLoop=1;jettySize=auto;html=1;entryX=0;entryY=0.5;entryDx=0;entryDy=0;" edge="1" parent="1" source="PkmGrTC4i7uRgXSUsqou-32" target="PkmGrTC4i7uRgXSUsqou-34">
          <mxGeometry relative="1" as="geometry" />
        </mxCell>
        <mxCell id="PkmGrTC4i7uRgXSUsqou-32" value="発送処理&lt;div&gt;（伝票番号登録）&lt;/div&gt;" style="rounded=0;whiteSpace=wrap;html=1;" vertex="1" parent="1">
          <mxGeometry x="505" y="250" width="120" height="60" as="geometry" />
        </mxCell>
        <mxCell id="PkmGrTC4i7uRgXSUsqou-37" style="edgeStyle=orthogonalEdgeStyle;rounded=0;orthogonalLoop=1;jettySize=auto;html=1;entryX=0;entryY=0.5;entryDx=0;entryDy=0;" edge="1" parent="1" source="PkmGrTC4i7uRgXSUsqou-34" target="PkmGrTC4i7uRgXSUsqou-36">
          <mxGeometry relative="1" as="geometry" />
        </mxCell>
        <mxCell id="PkmGrTC4i7uRgXSUsqou-34" value="ステータス更新&lt;div&gt;「発送済み」&lt;/div&gt;" style="rounded=0;whiteSpace=wrap;html=1;" vertex="1" parent="1">
          <mxGeometry x="645" y="250" width="120" height="60" as="geometry" />
        </mxCell>
        <mxCell id="PkmGrTC4i7uRgXSUsqou-39" style="edgeStyle=orthogonalEdgeStyle;rounded=0;orthogonalLoop=1;jettySize=auto;html=1;exitX=1;exitY=0.5;exitDx=0;exitDy=0;entryX=0;entryY=0.5;entryDx=0;entryDy=0;" edge="1" parent="1" source="PkmGrTC4i7uRgXSUsqou-36" target="PkmGrTC4i7uRgXSUsqou-38">
          <mxGeometry relative="1" as="geometry" />
        </mxCell>
        <mxCell id="PkmGrTC4i7uRgXSUsqou-36" value="顧客に発送完了&lt;div&gt;メール送信&lt;/div&gt;" style="rounded=0;whiteSpace=wrap;html=1;" vertex="1" parent="1">
          <mxGeometry x="785" y="250" width="120" height="60" as="geometry" />
        </mxCell>
        <mxCell id="PkmGrTC4i7uRgXSUsqou-41" style="edgeStyle=orthogonalEdgeStyle;rounded=0;orthogonalLoop=1;jettySize=auto;html=1;exitX=1;exitY=0.5;exitDx=0;exitDy=0;entryX=0;entryY=0.5;entryDx=0;entryDy=0;" edge="1" parent="1" target="PkmGrTC4i7uRgXSUsqou-40">
          <mxGeometry relative="1" as="geometry">
            <mxPoint x="65" y="460" as="targetPoint" />
            <mxPoint x="1045" y="280" as="sourcePoint" />
            <Array as="points">
              <mxPoint x="1096" y="280" />
              <mxPoint x="1096" y="370" />
              <mxPoint x="65" y="370" />
              <mxPoint x="65" y="500" />
            </Array>
          </mxGeometry>
        </mxCell>
        <mxCell id="PkmGrTC4i7uRgXSUsqou-38" value="配送業者に&lt;div&gt;よる配達&lt;/div&gt;" style="rounded=0;whiteSpace=wrap;html=1;" vertex="1" parent="1">
          <mxGeometry x="925" y="250" width="120" height="60" as="geometry" />
        </mxCell>
        <mxCell id="PkmGrTC4i7uRgXSUsqou-43" style="edgeStyle=orthogonalEdgeStyle;rounded=0;orthogonalLoop=1;jettySize=auto;html=1;exitX=1;exitY=0.5;exitDx=0;exitDy=0;entryX=0;entryY=0.5;entryDx=0;entryDy=0;" edge="1" parent="1" source="PkmGrTC4i7uRgXSUsqou-40" target="PkmGrTC4i7uRgXSUsqou-42">
          <mxGeometry relative="1" as="geometry" />
        </mxCell>
        <mxCell id="PkmGrTC4i7uRgXSUsqou-40" value="配達完了" style="rounded=0;whiteSpace=wrap;html=1;" vertex="1" parent="1">
          <mxGeometry x="85" y="470" width="120" height="60" as="geometry" />
        </mxCell>
        <mxCell id="PkmGrTC4i7uRgXSUsqou-46" style="edgeStyle=orthogonalEdgeStyle;rounded=0;orthogonalLoop=1;jettySize=auto;html=1;exitX=0.5;exitY=0;exitDx=0;exitDy=0;entryX=0;entryY=0.25;entryDx=0;entryDy=0;" edge="1" parent="1" source="PkmGrTC4i7uRgXSUsqou-42" target="PkmGrTC4i7uRgXSUsqou-44">
          <mxGeometry relative="1" as="geometry">
            <mxPoint x="285" y="410" as="targetPoint" />
          </mxGeometry>
        </mxCell>
        <mxCell id="PkmGrTC4i7uRgXSUsqou-63" style="edgeStyle=orthogonalEdgeStyle;rounded=0;orthogonalLoop=1;jettySize=auto;html=1;entryX=0;entryY=0.75;entryDx=0;entryDy=0;" edge="1" parent="1" source="PkmGrTC4i7uRgXSUsqou-42" target="PkmGrTC4i7uRgXSUsqou-61">
          <mxGeometry relative="1" as="geometry">
            <mxPoint x="290" y="620" as="targetPoint" />
            <Array as="points">
              <mxPoint x="280" y="565" />
            </Array>
          </mxGeometry>
        </mxCell>
        <mxCell id="PkmGrTC4i7uRgXSUsqou-42" value="返品申請&lt;div&gt;10日以内？&lt;/div&gt;" style="shape=hexagon;perimeter=hexagonPerimeter2;whiteSpace=wrap;html=1;fixedSize=1;" vertex="1" parent="1">
          <mxGeometry x="225" y="460" width="120" height="80" as="geometry" />
        </mxCell>
        <mxCell id="PkmGrTC4i7uRgXSUsqou-52" style="edgeStyle=orthogonalEdgeStyle;rounded=0;orthogonalLoop=1;jettySize=auto;html=1;exitX=1;exitY=0.5;exitDx=0;exitDy=0;entryX=0;entryY=0.5;entryDx=0;entryDy=0;" edge="1" parent="1" source="PkmGrTC4i7uRgXSUsqou-44" target="PkmGrTC4i7uRgXSUsqou-51">
          <mxGeometry relative="1" as="geometry" />
        </mxCell>
        <mxCell id="PkmGrTC4i7uRgXSUsqou-44" value="顧客が返品申請" style="rounded=0;whiteSpace=wrap;html=1;" vertex="1" parent="1">
          <mxGeometry x="365" y="420" width="120" height="60" as="geometry" />
        </mxCell>
        <mxCell id="PkmGrTC4i7uRgXSUsqou-45" value="処理完了" style="rounded=0;whiteSpace=wrap;html=1;" vertex="1" parent="1">
          <mxGeometry x="505" y="520" width="120" height="60" as="geometry" />
        </mxCell>
        <mxCell id="PkmGrTC4i7uRgXSUsqou-49" value="yes" style="text;html=1;align=center;verticalAlign=middle;resizable=0;points=[];autosize=1;strokeColor=none;fillColor=none;" vertex="1" parent="1">
          <mxGeometry x="305" y="410" width="40" height="30" as="geometry" />
        </mxCell>
        <mxCell id="PkmGrTC4i7uRgXSUsqou-50" value="no" style="text;html=1;align=center;verticalAlign=middle;resizable=0;points=[];autosize=1;strokeColor=none;fillColor=none;" vertex="1" parent="1">
          <mxGeometry x="305" y="560" width="40" height="30" as="geometry" />
        </mxCell>
        <mxCell id="PkmGrTC4i7uRgXSUsqou-54" style="edgeStyle=orthogonalEdgeStyle;rounded=0;orthogonalLoop=1;jettySize=auto;html=1;entryX=0;entryY=0.5;entryDx=0;entryDy=0;" edge="1" parent="1" source="PkmGrTC4i7uRgXSUsqou-51" target="PkmGrTC4i7uRgXSUsqou-53">
          <mxGeometry relative="1" as="geometry" />
        </mxCell>
        <mxCell id="PkmGrTC4i7uRgXSUsqou-51" value="管理者が返品受付" style="rounded=0;whiteSpace=wrap;html=1;" vertex="1" parent="1">
          <mxGeometry x="505" y="420" width="120" height="60" as="geometry" />
        </mxCell>
        <mxCell id="PkmGrTC4i7uRgXSUsqou-56" style="edgeStyle=orthogonalEdgeStyle;rounded=0;orthogonalLoop=1;jettySize=auto;html=1;entryX=0;entryY=0.5;entryDx=0;entryDy=0;" edge="1" parent="1" source="PkmGrTC4i7uRgXSUsqou-53" target="PkmGrTC4i7uRgXSUsqou-55">
          <mxGeometry relative="1" as="geometry" />
        </mxCell>
        <mxCell id="PkmGrTC4i7uRgXSUsqou-53" value="顧客が商品返送&lt;div&gt;（送料負担）&lt;/div&gt;" style="rounded=0;whiteSpace=wrap;html=1;" vertex="1" parent="1">
          <mxGeometry x="645" y="420" width="120" height="60" as="geometry" />
        </mxCell>
        <mxCell id="PkmGrTC4i7uRgXSUsqou-58" style="edgeStyle=orthogonalEdgeStyle;rounded=0;orthogonalLoop=1;jettySize=auto;html=1;" edge="1" parent="1" source="PkmGrTC4i7uRgXSUsqou-55" target="PkmGrTC4i7uRgXSUsqou-57">
          <mxGeometry relative="1" as="geometry" />
        </mxCell>
        <mxCell id="PkmGrTC4i7uRgXSUsqou-55" value="管理者が返品確認" style="rounded=0;whiteSpace=wrap;html=1;" vertex="1" parent="1">
          <mxGeometry x="785" y="420" width="120" height="60" as="geometry" />
        </mxCell>
        <mxCell id="PkmGrTC4i7uRgXSUsqou-60" style="edgeStyle=orthogonalEdgeStyle;rounded=0;orthogonalLoop=1;jettySize=auto;html=1;entryX=0;entryY=0.5;entryDx=0;entryDy=0;" edge="1" parent="1" source="PkmGrTC4i7uRgXSUsqou-57" target="PkmGrTC4i7uRgXSUsqou-59">
          <mxGeometry relative="1" as="geometry" />
        </mxCell>
        <mxCell id="PkmGrTC4i7uRgXSUsqou-57" value="返金処理&lt;div&gt;（クレジットカード）&lt;/div&gt;" style="rounded=0;whiteSpace=wrap;html=1;" vertex="1" parent="1">
          <mxGeometry x="925" y="420" width="120" height="60" as="geometry" />
        </mxCell>
        <mxCell id="PkmGrTC4i7uRgXSUsqou-59" value="ステータス更新&lt;div&gt;「返品完了」&lt;/div&gt;" style="rounded=0;whiteSpace=wrap;html=1;" vertex="1" parent="1">
          <mxGeometry x="1065" y="420" width="120" height="60" as="geometry" />
        </mxCell>
        <mxCell id="PkmGrTC4i7uRgXSUsqou-64" style="edgeStyle=orthogonalEdgeStyle;rounded=0;orthogonalLoop=1;jettySize=auto;html=1;entryX=0;entryY=0.5;entryDx=0;entryDy=0;" edge="1" parent="1" source="PkmGrTC4i7uRgXSUsqou-61" target="PkmGrTC4i7uRgXSUsqou-45">
          <mxGeometry relative="1" as="geometry" />
        </mxCell>
        <mxCell id="PkmGrTC4i7uRgXSUsqou-61" value="顧客に&lt;span style=&quot;background-color: transparent; color: light-dark(rgb(0, 0, 0), rgb(255, 255, 255));&quot;&gt;返品不可通知&lt;/span&gt;&lt;div&gt;&lt;span style=&quot;background-color: transparent; color: light-dark(rgb(0, 0, 0), rgb(255, 255, 255));&quot;&gt;メール送信&lt;/span&gt;&lt;/div&gt;" style="rounded=0;whiteSpace=wrap;html=1;" vertex="1" parent="1">
          <mxGeometry x="365" y="520" width="120" height="60" as="geometry" />
        </mxCell>
        <mxCell id="PkmGrTC4i7uRgXSUsqou-65" value="処理完了" style="rounded=0;whiteSpace=wrap;html=1;" vertex="1" parent="1">
          <mxGeometry x="925" y="130" width="120" height="60" as="geometry" />
        </mxCell>
      </root>
    </mxGraphModel>
  </diagram>
</mxfile>
